<svg xmlns="http://www.w3.org/2000/svg" viewBox="0 0 59 59" width="59" height="59">
	<style>
		tspan { white-space:pre }
		.shp0 { fill: #b78b57 } 
	</style>
	<path id="Clock" class="shp0" d="M29.23 58.58C13.26 58.58 0.32 45.63 0.32 29.66C0.32 13.69 13.26 0.75 29.23 0.75C45.2 0.75 58.14 13.69 58.14 29.66C58.14 45.63 45.2 58.58 29.23 58.58ZM29.23 4.36C15.26 4.36 3.93 15.69 3.93 29.66C3.93 43.64 15.26 54.96 29.23 54.96C43.2 54.96 54.53 43.64 54.53 29.66C54.53 15.69 43.2 4.36 29.23 4.36ZM47.3 31.47L47.3 27.86L50.92 27.86L50.92 31.47L47.3 31.47ZM42.24 44.47L39.68 41.91L42.24 39.36L44.79 41.91L42.24 44.47ZM40.21 15.7L42.71 13.19L45.21 15.7L42.71 18.21L40.21 15.7ZM27.42 47.73L31.04 47.73L31.04 51.35L27.42 51.35L27.42 47.73ZM29.23 31.51L12.97 31.51C11.97 31.51 11.16 30.7 11.16 29.71C11.16 28.71 11.97 27.9 12.97 27.9L27.42 27.9L27.42 9.79C27.42 8.79 28.23 7.98 29.23 7.98C30.23 7.98 31.04 8.79 31.04 9.79L31.04 29.71C31.04 30.7 30.23 31.51 29.23 31.51ZM12.72 15.79L15.27 13.23L17.83 15.79L15.27 18.35L12.72 15.79ZM17.48 42.01L14.98 44.52L12.48 42.01L14.98 39.5L17.48 42.01Z" />
</svg>