<svg xmlns="http://www.w3.org/2000/svg" viewBox="0 0 59 58" width="59" height="58">
	<style>
		tspan { white-space:pre }
		.shp0 { fill: #b78b57 } 
	</style>
	<path id="Quality" class="shp0" d="M58.55 47.06C58.55 47.06 52.83 48.21 47.03 49.4C43.17 53.7 39.32 58 39.32 58L31.03 43.86C30.56 43.89 30.09 43.93 29.62 43.93C29.14 43.93 28.68 43.89 28.21 43.86L19.92 58C19.92 58 16.07 53.7 12.2 49.4C6.4 48.21 0.69 47.06 0.69 47.06L9.7 31.68C8.25 28.77 7.41 25.51 7.41 22.05C7.41 9.97 17.35 0.17 29.62 0.17C41.88 0.17 51.82 9.97 51.82 22.05C51.82 25.51 50.99 28.77 49.53 31.68L58.55 47.06ZM39.75 51.44C39.75 51.44 42.52 48.81 45.13 46.27C48.83 45.22 52.57 44.15 52.57 44.15L47.33 35.21C44.31 39.15 39.97 42.04 34.96 43.26L39.75 51.44ZM6.67 44.15C6.67 44.15 10.4 45.22 14.1 46.27C16.71 48.81 19.49 51.44 19.49 51.44L24.28 43.26C19.26 42.04 14.93 39.15 11.91 35.21L6.67 44.15ZM29.62 3.76C19.65 3.76 11.56 11.86 11.56 21.85C11.56 31.84 19.65 39.94 29.62 39.94C39.59 39.94 47.67 31.84 47.67 21.85C47.67 11.86 39.59 3.76 29.62 3.76ZM29.62 34.51C22.63 34.51 16.97 28.84 16.97 21.86C16.97 14.87 22.63 9.21 29.62 9.21C36.6 9.21 42.27 14.87 42.27 21.86C42.27 28.84 36.6 34.51 29.62 34.51ZM29.62 12.82C24.63 12.82 20.58 16.87 20.58 21.86C20.58 26.85 24.63 30.89 29.62 30.89C34.61 30.89 38.65 26.85 38.65 21.86C38.65 16.87 34.61 12.82 29.62 12.82Z" />
</svg>