<svg xmlns="http://www.w3.org/2000/svg" viewBox="0 0 59 58" width="59" height="58">
	<style>
		tspan { white-space:pre }
		.shp0 { fill: #b78b57 } 
	</style>
	<path id="Support" class="shp0" d="M29.18 50.77C27.33 50.77 25.52 50.6 23.77 50.31L11.1 58L11.1 45.2C4.5 40.57 0.26 33.46 0.26 25.47C0.26 11.5 13.21 0.17 29.18 0.17C45.14 0.17 58.09 11.5 58.09 25.47C58.09 39.44 45.14 50.77 29.18 50.77ZM29.18 3.79C15.2 3.79 3.88 13.49 3.88 25.47C3.88 32.82 8.15 39.3 14.67 43.22L14.56 51.61L23.07 46.49C25.03 46.91 27.07 47.16 29.18 47.16C43.15 47.16 54.48 37.45 54.48 25.47C54.48 13.49 43.15 3.79 29.18 3.79ZM43.63 29.09C41.64 29.09 40.02 27.47 40.02 25.47C40.02 23.47 41.64 21.86 43.63 21.86C45.63 21.86 47.25 23.47 47.25 25.47C47.25 27.47 45.63 29.09 43.63 29.09ZM29.18 29.09C27.18 29.09 25.56 27.47 25.56 25.47C25.56 23.47 27.18 21.86 29.18 21.86C31.17 21.86 32.79 23.47 32.79 25.47C32.79 27.47 31.17 29.09 29.18 29.09ZM14.72 29.09C12.72 29.09 11.1 27.47 11.1 25.47C11.1 23.47 12.72 21.86 14.72 21.86C16.71 21.86 18.33 23.47 18.33 25.47C18.33 27.47 16.71 29.09 14.72 29.09Z" />
</svg>