<svg xmlns="http://www.w3.org/2000/svg" viewBox="0 0 40 40" width="40" height="40"><style>tspan { white-space:pre }.shp0 { fill: #ffffff } </style><path id="Telephone" class="shp0" d="M31.1 25.1C30.3 24.27 29.34 23.83 28.32 23.83C27.31 23.83 26.34 24.26 25.51 25.09L22.91 27.68C22.69 27.57 22.48 27.46 22.27 27.35C21.98 27.21 21.7 27.07 21.46 26.92C19.03 25.37 16.82 23.36 14.7 20.75C13.67 19.45 12.98 18.36 12.48 17.25C13.15 16.63 13.77 15.99 14.38 15.37C14.61 15.14 14.84 14.91 15.07 14.68C16.8 12.95 16.8 10.71 15.07 8.99L12.83 6.74C12.57 6.49 12.31 6.22 12.07 5.96C11.57 5.45 11.05 4.92 10.52 4.43C9.72 3.64 8.77 3.22 7.77 3.22C6.76 3.22 5.79 3.64 4.97 4.43C4.96 4.44 4.96 4.44 4.95 4.45L2.16 7.27C1.11 8.32 0.51 9.6 0.38 11.09C0.18 13.49 0.89 15.73 1.43 17.19C2.76 20.78 4.75 24.12 7.72 27.68C11.32 31.98 15.65 35.38 20.6 37.77C22.49 38.67 25.01 39.73 27.83 39.91C28 39.92 28.19 39.93 28.35 39.93C30.25 39.93 31.84 39.24 33.09 37.89C33.1 37.87 33.12 37.86 33.13 37.85C33.55 37.33 34.05 36.86 34.56 36.36C34.92 36.02 35.28 35.67 35.63 35.3C36.45 34.45 36.87 33.46 36.87 32.45C36.87 31.43 36.44 30.45 35.61 29.63L31.1 25.1ZM34.04 33.76C34.03 33.76 34.03 33.77 34.04 33.76C33.72 34.11 33.39 34.42 33.04 34.76C32.5 35.27 31.96 35.81 31.45 36.41C30.62 37.3 29.64 37.72 28.36 37.72C28.23 37.72 28.1 37.72 27.98 37.71C25.54 37.55 23.27 36.6 21.57 35.78C16.92 33.53 12.83 30.33 9.43 26.28C6.63 22.9 4.76 19.77 3.52 16.42C2.75 14.37 2.47 12.78 2.6 11.27C2.68 10.31 3.05 9.51 3.73 8.83L6.53 6.03C6.94 5.65 7.36 5.44 7.78 5.44C8.3 5.44 8.72 5.75 8.98 6.02C8.99 6.03 9 6.03 9.01 6.04C9.51 6.51 9.99 7 10.49 7.51C10.74 7.78 11 8.04 11.27 8.31L13.51 10.56C14.38 11.43 14.38 12.23 13.51 13.1C13.27 13.34 13.04 13.58 12.8 13.81C12.11 14.52 11.46 15.18 10.74 15.82C10.73 15.83 10.71 15.84 10.7 15.86C9.99 16.57 10.13 17.26 10.27 17.73C10.28 17.75 10.29 17.78 10.3 17.8C10.88 19.21 11.7 20.55 12.95 22.13L12.96 22.14C15.23 24.94 17.62 27.12 20.26 28.79C20.6 29 20.94 29.17 21.27 29.34C21.57 29.48 21.85 29.62 22.09 29.77C22.12 29.79 22.15 29.81 22.18 29.83C22.46 29.97 22.73 30.04 23 30.04C23.68 30.04 24.11 29.61 24.25 29.47L27.06 26.66C27.34 26.38 27.78 26.04 28.3 26.04C28.81 26.04 29.23 26.36 29.48 26.64C29.49 26.65 29.49 26.65 29.5 26.66L34.03 31.19C34.88 32.02 34.88 32.89 34.04 33.76ZM21.36 10.23C23.52 10.6 25.47 11.62 27.03 13.18C28.6 14.74 29.61 16.7 29.98 18.85C30.07 19.4 30.54 19.77 31.07 19.77C31.14 19.77 31.19 19.77 31.26 19.76C31.87 19.66 32.27 19.08 32.17 18.47C31.73 15.87 30.5 13.49 28.61 11.61C26.73 9.73 24.35 8.49 21.75 8.05C21.14 7.95 20.57 8.35 20.47 8.95C20.36 9.55 20.75 10.14 21.36 10.23ZM39.22 18.15C38.49 13.86 36.46 9.96 33.36 6.85C30.25 3.74 26.34 1.72 22.05 0.98C21.45 0.88 20.89 1.29 20.78 1.89C20.68 2.5 21.08 3.07 21.69 3.17C25.52 3.82 29.02 5.64 31.79 8.41C34.57 11.19 36.38 14.68 37.03 18.52C37.12 19.06 37.59 19.44 38.12 19.44C38.19 19.44 38.25 19.43 38.31 19.42C38.91 19.33 39.32 18.75 39.22 18.15Z" /></svg>